<svg version="1.1" id="Layer_1" xmlns:x="ns_extend;" xmlns:i="ns_ai;" xmlns:graph="ns_graphs;" xmlns="http://www.w3.org/2000/svg" xmlns:xlink="http://www.w3.org/1999/xlink" x="0px" y="0px" viewBox="0 0 217.3 65" style="enable-background:new 0 0 217.3 65;" xml:space="preserve">
 <style type="text/css">
  .st0{fill:#BF0000;}
 </style>
 <metadata>
  <sfw xmlns="ns_sfw;">
   <slices>
   </slices>
   <sliceSourceBounds bottomLeftOrigin="true" height="65" width="217.3" x="-110.3" y="0">
   </sliceSourceBounds>
  </sfw>
 </metadata>
 <g>
  <path class="st0" d="M174.8,54.5H43.5L53.9,65L174.8,54.5z">
  </path>
  <path class="st0" d="M55.6,11.8v1.6c-2.5-1.6-4.6-2.5-7.6-2.5c-9.2,0-16.2,8.4-16.2,18.8c0,10.4,6.9,18.8,16.2,18.8
		c3,0,5.2-0.9,7.6-2.5v1.6h8.1V11.8H55.6z M47.9,40c-4.6,0-7.9-4.5-7.9-10.1c0-5.7,3.3-10.1,7.9-10.1s7.7,4.5,7.7,10.1
		C55.8,35.5,52.5,40,47.9,40z">
  </path>
  <path class="st0" d="M120.5,11.8v21.1c0,3.9-2.7,7.2-6.7,7.2c-3.9,0-6.7-3.3-6.7-7.2V11.8H99v21.1c0,8.7,5.9,15.7,14.5,15.7
		c3.9,0,6.9-2.2,6.9-2.2v1.3h8.1V11.8H120.5z">
  </path>
  <path class="st0" d="M195.9,47.8V26.7c0-3.9,2.7-7.2,6.7-7.2c3.9,0,6.7,3.3,6.7,7.2v21.1h8.1V26.7c0-8.7-5.9-15.7-14.5-15.7
		c-3.9,0-6.9,2.2-6.9,2.2v-1.4h-8.1v35.8h8.1V47.8z">
  </path>
  <path class="st0" d="M8.5,47.8V33.8h5.9l10.3,13.8h10.6L22.8,30.9c3.9-2.8,6.4-7.4,6.4-12.6c0-8.6-6.9-15.4-15.3-15.4H0v44.7h8.5
		V47.8z M8.5,11.4H14c3.8,0,6.9,3.2,6.9,7c0,3.8-3.1,7-6.9,7H8.5V11.4z">
  </path>
  <path class="st0" d="M150.3,39.2c-0.8,0.5-1.7,0.9-2.7,0.9c-1.3,0-3.8-1.1-3.8-4.3V20.4h6.9v-8.6h-6.9V2.9h-8.1v8.9h-4.3v8.6h4.3
		v15.4c0,8,6,12.8,12,12.8c2.2,0,5.4-0.8,7.9-2.2L150.3,39.2z">
  </path>
  <path class="st0" d="M83.8,28.7l13.9-16.8H86.4l-9.8,12.5V0h-8.2v47.8h8.2V33l12,14.7h11.3L83.8,28.7z">
  </path>
  <path class="st0" d="M169,10.9c-9.4,0-16.1,8.3-16.1,18.8c0,11.1,8.4,18.8,16.9,18.8c4.3,0,9.7-1.4,14.3-8l-7.2-4.2
		c-5.5,8.2-14.8,4.1-15.8-4.2h23.3C186.4,19.5,178.2,10.9,169,10.9z M176.1,25.1h-14.5C163.3,16.8,174.5,16.3,176.1,25.1z">
  </path>
 </g>
</svg>